<?xml version="1.0" encoding="utf-8"?>
<!-- Generator: Adobe Illustrator 22.1.0, SVG Export Plug-In . SVG Version: 6.00 Build 0)  -->
<svg version="1.1" id="Layer_1" xmlns="http://www.w3.org/2000/svg" xmlns:xlink="http://www.w3.org/1999/xlink" x="0px" y="0px"
	 viewBox="0 0 563 249" style="enable-background:new 0 0 563 249;" xml:space="preserve">
<style type="text/css">
	.st0{fill:none;}
	.st1{fill:#DDDDDD;}
	.st2{fill:url(#SVGID_1_);}
	.st3{fill:#FFFFFF;}
	.st4{fill:#222222;}
	.st5{font-family:'Poppins-Bold';}
	.st6{font-size:22px;}
	.st7{fill:#F6F6F6;fill-opacity:0;}
	.st8{fill:#007ACC;}
	.st9{fill:#61DBFB;}
	.st10{fill:#FA7E14;}
	.st11{fill:#0ACF83;}
	.st12{fill:#A259FF;}
	.st13{fill:#F24E1E;}
	.st14{fill:#FF7262;}
	.st15{fill:#1ABCFE;}
	.st16{fill:#333333;}
	.st17{font-family:'Poppins-Regular';}
	.st18{font-size:11px;}
</style>
<pattern  y="272" width="8" height="8" patternUnits="userSpaceOnUse" id="Grid" viewBox="0 -8 8 8" style="overflow:visible;">
	<g>
		<rect y="-8" class="st0" width="8" height="8"/>
		<rect y="-8" class="st0" width="8" height="8"/>
		<circle class="st1" cx="4" cy="-4" r="1.2"/>
	</g>
</pattern>
<title>currenttechArtboard 1</title>
<g>
	<g id="Layer_1_1_">
		<pattern  id="SVGID_1_" xlink:href="#Grid" patternTransform="matrix(1 0 0 -1 0 -16215)">
		</pattern>
		<rect x="5" y="7" class="st2" width="177" height="200"/>
		
			<image style="overflow:visible;opacity:0.2;enable-background:new    ;" width="558" height="241" xlink:href="597D5DA67AED284C.png"  transform="matrix(1 0 0 1 11 15)">
		</image>
		<path class="st3" d="M45,35h490c2.2,0,4,1.8,4,4v172.5c0,2.2-1.8,4-4,4H45c-2.2,0-4-1.8-4-4V39C41,36.8,42.8,35,45,35z"/>
		<text transform="matrix(1 0 0 1 72.7 77.41)" class="st4 st5 st6">Current Tech</text>
		<path class="st7" d="M462.2,108.4v41h-41v-41L462.2,108.4z"/>
		<path class="st8" d="M462.2,112.6v32.5l-10.2,4.3L421.2,139l30.8,4.6v-35.2L462.2,112.6z M423.8,131.6l5.8-5.7l-5.8-5.7l2.3-0.8
			l5.7,4.3l9.4-9.3l5.6,2.4V135l-5.6,2.4l-9.4-9.3l-5.7,4.3L423.8,131.6z M434.8,125.9l6.5,4.9V121L434.8,125.9z"/>
		<polygon class="st8" points="108.5,128.9 108.5,150 129.6,150 150.7,150 150.7,128.9 150.7,107.8 129.6,107.8 108.5,107.8 		"/>
		<path class="st3" d="M117.8,129v1.7h5.5v15.6h3.9v-15.6h5.5v-1.7c0-0.6,0-1.2-0.1-1.8c0,0-3.4,0-7.4,0h-7.4L117.8,129z"/>
		<path class="st3" d="M142.6,127.2c1,0.2,1.9,0.8,2.6,1.5c0.4,0.4,0.7,0.9,1,1.4c0,0.1-1.8,1.3-2.9,2c0,0-0.2-0.1-0.4-0.4
			c-0.4-0.7-1.2-1.2-2-1.2c-1.3-0.1-2.1,0.6-2.1,1.7c0,0.3,0.1,0.5,0.2,0.8c0.3,0.6,0.8,0.9,2.4,1.6c3,1.3,4.3,2.2,5.1,3.4
			c0.9,1.6,1.1,3.4,0.5,5.1c-0.8,1.9-2.6,3.2-4.7,3.3c-1.1,0.1-2.2,0.1-3.2,0c-2.3-0.3-4.4-1.8-5.4-3.9l0.4-0.2l1.6-0.9l1.2-0.7
			l0.3,0.4c0.4,0.6,1,1.1,1.6,1.5c1.3,0.7,2.9,0.6,4.1-0.2c0.6-0.6,0.7-1.6,0.2-2.3c-0.3-0.5-1-0.9-2.9-1.7c-1.5-0.5-2.9-1.3-4-2.4
			c-0.5-0.6-0.9-1.3-1.2-2.1c-0.2-0.9-0.2-1.8-0.1-2.7c0.5-2.1,2.2-3.7,4.3-4C140.4,127.1,141.5,127.1,142.6,127.2z"/>
		<path class="st9" d="M301.2,121.4c-0.5-0.2-1-0.3-1.5-0.5c0.1-0.3,0.2-0.7,0.2-1c1.2-5.6,0.4-10.1-2.2-11.6s-6.5,0.1-10.6,3.6
			c-0.4,0.3-0.8,0.7-1.2,1.1c-0.2-0.2-0.5-0.5-0.8-0.7c-4.3-3.8-8.6-5.4-11.2-3.9s-3.2,5.7-2.2,11c0.1,0.5,0.2,1,0.4,1.6
			c-0.6,0.2-1.2,0.4-1.8,0.6c-5,1.7-8.6,4.5-8.6,7.3c0,2.8,3.9,5.9,9.1,7.7c0.4,0.1,0.9,0.3,1.3,0.4c-0.1,0.6-0.3,1.1-0.4,1.7
			c-1,5.2-0.2,9.4,2.3,10.8s6.8,0,11-3.7c0.3-0.3,0.7-0.6,1-0.9c0.4,0.4,0.9,0.8,1.3,1.2c4,3.5,8,4.9,10.5,3.4s3.4-5.9,2.3-11.4
			c-0.1-0.4-0.2-0.8-0.3-1.3l0.9-0.3c5.4-1.8,9.4-4.7,9.4-7.7S306.3,123.3,301.2,121.4L301.2,121.4z M288.4,113.4
			c3.5-3.1,6.8-4.2,8.3-3.4s2.2,4.6,1.2,9.5c-0.1,0.3-0.1,0.6-0.2,0.9c-2.1-0.5-4.2-0.8-6.4-1c-1.2-1.8-2.6-3.4-4-5
			C287.7,114.1,288,113.8,288.4,113.4z M276.2,131.3c0.4,0.8,0.9,1.6,1.4,2.5s1,1.6,1.5,2.4c-1.5-0.2-2.9-0.4-4.4-0.7
			C275.1,134,275.6,132.6,276.2,131.3z M276.2,126.5c-0.6-1.4-1.1-2.8-1.5-4.1c1.4-0.3,2.8-0.6,4.3-0.7c-0.5,0.8-1,1.6-1.5,2.4
			S276.6,125.7,276.2,126.5z M277.2,128.9c0.6-1.3,1.3-2.6,2-3.8s1.5-2.5,2.3-3.7c1.4-0.1,2.9-0.2,4.3-0.2s2.9,0.1,4.3,0.2
			c0.8,1.2,1.6,2.4,2.3,3.6s1.4,2.5,2,3.8c-0.6,1.3-1.3,2.6-2,3.9s-1.5,2.5-2.3,3.7c-1.4,0.1-2.9,0.2-4.4,0.2s-2.9-0.1-4.3-0.1
			c-0.8-1.2-1.6-2.4-2.3-3.7S277.9,130.2,277.2,128.9L277.2,128.9z M294.2,133.7c0.5-0.8,0.9-1.7,1.4-2.5c0.6,1.4,1.1,2.8,1.6,4.2
			c-1.5,0.3-2.9,0.6-4.4,0.8C293.3,135.3,293.8,134.5,294.2,133.7L294.2,133.7z M295.6,126.5c-0.4-0.8-0.9-1.7-1.4-2.5
			s-0.9-1.6-1.4-2.4c1.5,0.2,3,0.4,4.3,0.8C296.7,123.8,296.2,125.2,295.6,126.5L295.6,126.5z M285.9,115.9c1,1.1,1.9,2.2,2.8,3.4
			c-1.9-0.1-3.7-0.1-5.6,0C284,118.1,285,116.9,285.9,115.9z M275,110.1c1.6-0.9,5.1,0.4,8.8,3.7l0.7,0.7c-1.5,1.6-2.8,3.2-4,5
			c-2.1,0.2-4.2,0.5-6.3,1c-0.1-0.5-0.2-1-0.3-1.5C272.9,114.4,273.5,111,275,110.1L275,110.1z M272.7,135c-0.4-0.1-0.8-0.2-1.2-0.4
			c-2.1-0.6-4.1-1.6-5.9-2.9c-0.9-0.7-1.6-1.7-1.8-2.8c0-1.7,3-3.9,7.3-5.4c0.5-0.2,1.1-0.4,1.6-0.5c0.6,2,1.4,4.1,2.3,6
			C274.1,130.9,273.3,132.9,272.7,135z M283.7,144.2c-1.6,1.4-3.4,2.5-5.3,3.3c-1,0.5-2.3,0.5-3.3,0.1c-1.5-0.9-2.1-4.2-1.3-8.7
			c0.1-0.5,0.2-1.1,0.4-1.6c2.1,0.5,4.2,0.8,6.4,0.9c1.2,1.8,2.6,3.4,4.1,5L283.7,144.2L283.7,144.2z M286,142c-1-1-1.9-2.2-2.9-3.4
			c0.9,0,1.8,0.1,2.8,0.1s1.9,0,2.9-0.1C287.9,139.7,287,140.8,286,142L286,142z M298.3,144.8c-0.1,1.2-0.7,2.2-1.6,2.9
			c-1.5,0.9-4.7-0.3-8.1-3.2c-0.4-0.3-0.8-0.7-1.2-1.1c1.4-1.6,2.8-3.2,4-5c2.2-0.2,4.3-0.5,6.4-1c0.1,0.4,0.2,0.8,0.2,1.1
			C298.5,140.6,298.6,142.7,298.3,144.8L298.3,144.8z M300,134.6l-0.8,0.2c-0.7-2.1-1.5-4.1-2.4-6c0.9-1.9,1.7-3.9,2.3-5.9
			c0.5,0.1,1,0.3,1.4,0.4c4.4,1.5,7.5,3.8,7.5,5.5C308,130.5,304.7,133.1,300,134.6z M285.9,124.6c2.4,0,4.3,1.9,4.3,4.3
			c0,2.4-1.9,4.3-4.3,4.3s-4.3-1.9-4.3-4.3c0,0,0,0,0,0C281.6,126.5,283.5,124.6,285.9,124.6"/>
		<path class="st10" d="M207.1,130l-0.4,0.6c-2.1,3-4.1,5.9-6.2,8.9c-1.9,2.8-3.9,5.5-5.8,8.2c-0.1,0.1-0.2,0.1-0.3,0.1l-8.2-0.1
			H186c0,0,0-0.1,0.1-0.2l5.7-8.6l5.1-7.6l5.6-8.4c0.3-0.4,0.6-0.8,0.8-1.2c0.1-0.1,0.1-0.3,0-0.4c-0.5-1.6-1-3.1-1.5-4.7
			c-0.2-0.7-0.4-1.3-0.7-2c-0.1-0.2-0.2-0.3-0.4-0.3h-5.1c-0.3,0-0.3,0-0.3-0.3V108c0-0.2,0.1-0.3,0.3-0.3H206
			c0.2,0,0.3,0.1,0.4,0.2c1.8,4.4,3.6,8.8,5.4,13.2c2.1,5.2,4.2,10.3,6.4,15.4l2,4.8c0.1,0.2,0.1,0.2,0.4,0.2l5.4-1.6
			c0.2-0.1,0.3,0,0.4,0.2c0.6,1.9,1.2,3.7,1.9,5.6c0,0.1,0,0.1,0.1,0.2c-0.1,0.1-0.3,0.1-0.4,0.1l-12.4,3.8c-0.2,0.1-0.2,0-0.3-0.2
			c-1.2-3.1-2.5-6.1-3.8-9.2c-1.3-3.1-2.5-6.1-3.7-9c-0.2-0.5-0.4-0.9-0.6-1.4C207.2,130.2,207.1,130.1,207.1,130L207.1,130z"/>
		<path id="path0_fill" class="st11" d="M358.6,149.9c3.9,0,7-3.1,7-7v-7h-7c-3.9,0-7,3.2-7,7C351.6,146.8,354.7,149.9,358.6,149.9
			L358.6,149.9z"/>
		<path id="path1_fill" class="st12" d="M351.6,128.7c0-3.9,3.1-7,7-7h7v14.1h-7C354.7,135.8,351.6,132.7,351.6,128.7
			C351.6,128.8,351.6,128.8,351.6,128.7z"/>
		<path id="path1_fill-2" class="st13" d="M351.6,114.7c0-3.9,3.1-7,7-7h7v14h-7C354.7,121.7,351.6,118.6,351.6,114.7
			C351.6,114.7,351.6,114.7,351.6,114.7z"/>
		<path id="path2_fill" class="st14" d="M365.6,107.6h7c3.9,0,7,3.2,7,7s-3.2,7-7,7h-7V107.6z"/>
		<path id="path3_fill" class="st15" d="M379.7,128.7c0,3.9-3.1,7-7,7s-7-3.1-7-7c0-3.9,3.1-7,7-7S379.7,124.9,379.7,128.7z"/>
		<text transform="matrix(1 0 0 1 100.7 176.41)" class="st16 st17 st18">TypeScript</text>
		<text transform="matrix(1 0 0 1 184.05 176.41)" class="st16 st17 st18">Lambda</text>
		<text transform="matrix(1 0 0 1 269.7 176.41)" class="st16 st17 st18">React</text>
		<text transform="matrix(1 0 0 1 347.7 176.41)" class="st16 st17 st18">Figma</text>
		<text transform="matrix(1 0 0 1 421.7 176.41)" class="st16 st17 st18">VSCode</text>
	</g>
</g>
</svg>
